<svg xmlns="http://www.w3.org/2000/svg" viewBox="0 0 350 600" width="350" height="600">
<defs>
<linearGradient id="bg" x1="0" y1="0" x2="1" y2="1">
<stop offset="0" stop-color="#2a2140"/>
<stop offset="1" stop-color="#12101f"/>
</linearGradient>
<radialGradient id="halo" cx="0.5" cy="0.5" r="0.62">
<stop offset="0" stop-color="#8fd694" stop-opacity="0.2"/>
<stop offset="1" stop-color="#8fd694" stop-opacity="0"/>
</radialGradient>
</defs>
<rect width="350" height="600" rx="24" fill="url(#bg)"/>
<rect x="14" y="14" width="322" height="572" rx="15" fill="none" stroke="#d9b96a" stroke-width="2.5"/>
<rect x="23" y="23" width="304" height="554" rx="11" fill="none" stroke="#8f7b3f" stroke-width="1"/>
<rect x="30" y="30" width="290" height="540" rx="9" fill="url(#halo)"/>
<polygon points="58.0,56.0 60.8,62.1 67.5,62.9 62.6,67.5 63.9,74.1 58.0,70.8 52.1,74.1 53.4,67.5 48.5,62.9 55.2,62.1" fill="#8fd694"/><polygon points="292.0,56.0 294.8,62.1 301.5,62.9 296.6,67.5 297.9,74.1 292.0,70.8 286.1,74.1 287.4,67.5 282.5,62.9 289.2,62.1" fill="#8fd694"/><polygon points="58.0,524.0 60.8,530.1 67.5,530.9 62.6,535.5 63.9,542.1 58.0,538.8 52.1,542.1 53.4,535.5 48.5,530.9 55.2,530.1" fill="#8fd694"/><polygon points="292.0,524.0 294.8,530.1 301.5,530.9 296.6,535.5 297.9,542.1 292.0,538.8 286.1,542.1 287.4,535.5 282.5,530.9 289.2,530.1" fill="#8fd694"/>
<rect x="44" y="44" width="262" height="64" rx="32" fill="none" stroke="#8fd694" stroke-width="1.6"/>
<text x="175" y="86" text-anchor="middle" font-family="Georgia, 'Times New Roman', serif" font-size="40" fill="#f3e6bd" font-weight="bold">XXI</text>
<text x="175" y="102" text-anchor="middle" font-family="Georgia, serif" font-size="12" letter-spacing="2" fill="#8fd694">THE WORLD</text>
<ellipse cx="271.0" cy="300.0" rx="8" ry="4" fill="#8fd694" transform="rotate(0.0 271.0 300.0)"/><ellipse cx="268.9" cy="314.1" rx="8" ry="4" fill="#8fd694" transform="rotate(12.0 268.9 314.1)"/><ellipse cx="262.7" cy="327.7" rx="8" ry="4" fill="#8fd694" transform="rotate(24.0 262.7 327.7)"/><ellipse cx="252.7" cy="340.0" rx="8" ry="4" fill="#8fd694" transform="rotate(36.0 252.7 340.0)"/><ellipse cx="239.2" cy="350.5" rx="8" ry="4" fill="#8fd694" transform="rotate(48.0 239.2 350.5)"/><ellipse cx="223.0" cy="358.9" rx="8" ry="4" fill="#8fd694" transform="rotate(60.0 223.0 358.9)"/><ellipse cx="204.7" cy="364.7" rx="8" ry="4" fill="#8fd694" transform="rotate(72.0 204.7 364.7)"/><ellipse cx="185.0" cy="367.6" rx="8" ry="4" fill="#8fd694" transform="rotate(84.0 185.0 367.6)"/><ellipse cx="165.0" cy="367.6" rx="8" ry="4" fill="#8fd694" transform="rotate(96.0 165.0 367.6)"/><ellipse cx="145.3" cy="364.7" rx="8" ry="4" fill="#8fd694" transform="rotate(108.0 145.3 364.7)"/><ellipse cx="127.0" cy="358.9" rx="8" ry="4" fill="#8fd694" transform="rotate(120.0 127.0 358.9)"/><ellipse cx="110.8" cy="350.5" rx="8" ry="4" fill="#8fd694" transform="rotate(132.0 110.8 350.5)"/><ellipse cx="97.3" cy="340.0" rx="8" ry="4" fill="#8fd694" transform="rotate(144.0 97.3 340.0)"/><ellipse cx="87.3" cy="327.7" rx="8" ry="4" fill="#8fd694" transform="rotate(156.0 87.3 327.7)"/><ellipse cx="81.1" cy="314.1" rx="8" ry="4" fill="#8fd694" transform="rotate(168.0 81.1 314.1)"/><ellipse cx="79.0" cy="300.0" rx="8" ry="4" fill="#8fd694" transform="rotate(180.0 79.0 300.0)"/><ellipse cx="81.1" cy="285.9" rx="8" ry="4" fill="#8fd694" transform="rotate(192.0 81.1 285.9)"/><ellipse cx="87.3" cy="272.3" rx="8" ry="4" fill="#8fd694" transform="rotate(204.0 87.3 272.3)"/><ellipse cx="97.3" cy="260.0" rx="8" ry="4" fill="#8fd694" transform="rotate(216.0 97.3 260.0)"/><ellipse cx="110.8" cy="249.5" rx="8" ry="4" fill="#8fd694" transform="rotate(228.0 110.8 249.5)"/><ellipse cx="127.0" cy="241.1" rx="8" ry="4" fill="#8fd694" transform="rotate(240.0 127.0 241.1)"/><ellipse cx="145.3" cy="235.3" rx="8" ry="4" fill="#8fd694" transform="rotate(252.0 145.3 235.3)"/><ellipse cx="165.0" cy="232.4" rx="8" ry="4" fill="#8fd694" transform="rotate(264.0 165.0 232.4)"/><ellipse cx="185.0" cy="232.4" rx="8" ry="4" fill="#8fd694" transform="rotate(276.0 185.0 232.4)"/><ellipse cx="204.7" cy="235.3" rx="8" ry="4" fill="#8fd694" transform="rotate(288.0 204.7 235.3)"/><ellipse cx="223.0" cy="241.1" rx="8" ry="4" fill="#8fd694" transform="rotate(300.0 223.0 241.1)"/><ellipse cx="239.2" cy="249.5" rx="8" ry="4" fill="#8fd694" transform="rotate(312.0 239.2 249.5)"/><ellipse cx="252.7" cy="260.0" rx="8" ry="4" fill="#8fd694" transform="rotate(324.0 252.7 260.0)"/><ellipse cx="262.7" cy="272.3" rx="8" ry="4" fill="#8fd694" transform="rotate(336.0 262.7 272.3)"/><ellipse cx="268.9" cy="285.9" rx="8" ry="4" fill="#8fd694" transform="rotate(348.0 268.9 285.9)"/><path fill="#d9b96a" d="M 209.0,300.0 175.0,334.0 141.0,300.0 175.0,266.0 Z M 199.0,324.0 151.0,324.0 151.0,276.0 199.0,276.0 Z"/><circle cx="175" cy="300" r="14" fill="#8fd694"/>
<rect x="54" y="502" width="242" height="58" rx="29" fill="none" stroke="#8f7b3f" stroke-width="1.4"/>
<text x="175" y="540" text-anchor="middle" font-family="Georgia, 'Microsoft YaHei', serif" font-size="30" fill="#f3e6bd">世界</text>
</svg>